<svg id="visual" viewBox="0 0 900 300" width="900" height="300" xmlns="http://www.w3.org/2000/svg" xmlns:xlink="http://www.w3.org/1999/xlink" version="1.1"><rect x="0" y="0" width="900" height="300" fill="#FFFFFF"></rect><defs><linearGradient id="grad1_0" x1="66.7%" y1="100%" x2="100%" y2="0%"><stop offset="-10%" stop-color="#ffffff" stop-opacity="1"></stop><stop offset="110%" stop-color="#ffffff" stop-opacity="1"></stop></linearGradient></defs><defs><linearGradient id="grad2_0" x1="0%" y1="100%" x2="33.3%" y2="0%"><stop offset="-10%" stop-color="#ffffff" stop-opacity="1"></stop><stop offset="110%" stop-color="#ffffff" stop-opacity="1"></stop></linearGradient></defs><g transform="translate(900, 300)"><path d="M-300 0C-297.4 -31.2 -294.8 -62.4 -285.3 -92.7C-275.9 -123.1 -259.6 -152.6 -236.2 -171.6C-212.8 -190.7 -182.3 -199.2 -158.1 -217.6C-133.9 -236 -116.1 -264.2 -90.9 -279.6C-65.6 -295 -32.8 -297.5 0 -300L0 0Z" fill="#115967"></path></g><g transform="translate(0, 0)"><path d="M300 0C273.8 23.6 247.5 47.1 242.5 78.8C237.5 110.5 253.8 150.3 242.7 176.3C231.6 202.3 193.1 214.5 161.6 222.5C130.2 230.4 105.8 234.1 80 246.3C54.3 258.5 27.1 279.3 0 300L0 0Z" fill="#115967"></path></g></svg>