<?xml version="1.0" standalone="no"?><svg xmlns="http://www.w3.org/2000/svg" viewBox="0 0 1440 320"><path fill="#FF6F03" fill-opacity="1" d="M0,128L40,144C80,160,160,192,240,181.3C320,171,400,117,480,101.3C560,85,640,107,720,122.7C800,139,880,149,960,165.3C1040,181,1120,203,1200,181.3C1280,160,1360,96,1400,64L1440,32L1440,320L1400,320C1360,320,1280,320,1200,320C1120,320,1040,320,960,320C880,320,800,320,720,320C640,320,560,320,480,320C400,320,320,320,240,320C160,320,80,320,40,320L0,320Z"></path></svg>