<svg id="visual" viewBox="0 0 450 900" width="450" height="900" xmlns="http://www.w3.org/2000/svg" xmlns:xlink="http://www.w3.org/1999/xlink" version="1.1"><rect x="0" y="0" width="450" height="900" fill="#FFFFFF"></rect><defs><linearGradient id="grad1_0" x1="0%" y1="100%" x2="100%" y2="0%"><stop offset="30%" stop-color="#ff6f03" stop-opacity="1"></stop><stop offset="70%" stop-color="#ff6f03" stop-opacity="1"></stop></linearGradient></defs><defs><linearGradient id="grad1_1" x1="0%" y1="100%" x2="100%" y2="0%"><stop offset="30%" stop-color="#ff6f03" stop-opacity="1"></stop><stop offset="70%" stop-color="#ffb88a" stop-opacity="1"></stop></linearGradient></defs><defs><linearGradient id="grad1_2" x1="0%" y1="100%" x2="100%" y2="0%"><stop offset="30%" stop-color="#ffffff" stop-opacity="1"></stop><stop offset="70%" stop-color="#ffb88a" stop-opacity="1"></stop></linearGradient></defs><defs><linearGradient id="grad2_0" x1="0%" y1="100%" x2="100%" y2="0%"><stop offset="30%" stop-color="#ff6f03" stop-opacity="1"></stop><stop offset="70%" stop-color="#ff6f03" stop-opacity="1"></stop></linearGradient></defs><defs><linearGradient id="grad2_1" x1="0%" y1="100%" x2="100%" y2="0%"><stop offset="30%" stop-color="#ffb88a" stop-opacity="1"></stop><stop offset="70%" stop-color="#ff6f03" stop-opacity="1"></stop></linearGradient></defs><defs><linearGradient id="grad2_2" x1="0%" y1="100%" x2="100%" y2="0%"><stop offset="30%" stop-color="#ffb88a" stop-opacity="1"></stop><stop offset="70%" stop-color="#ffffff" stop-opacity="1"></stop></linearGradient></defs><g transform="translate(450, 900)"><path d="M-450 0C-440.7 -44.8 -431.4 -89.6 -420.4 -136.6C-409.4 -183.6 -396.7 -232.8 -364.1 -264.5C-331.4 -296.2 -278.8 -310.5 -235.7 -324.4C-192.6 -338.3 -158.8 -351.9 -121.1 -372.8C-83.4 -393.7 -41.7 -421.8 0 -450L0 0Z" fill="#ffdcc4"></path><path d="M-300 0C-293.8 -29.9 -287.6 -59.7 -280.2 -91.1C-272.9 -122.4 -264.5 -155.2 -242.7 -176.3C-221 -197.5 -185.9 -207 -157.1 -216.3C-128.4 -225.6 -105.9 -234.6 -80.8 -248.5C-55.6 -262.5 -27.8 -281.2 0 -300L0 0Z" fill="#ff9551"></path><path d="M-150 0C-146.9 -14.9 -143.8 -29.9 -140.1 -45.5C-136.5 -61.2 -132.2 -77.6 -121.4 -88.2C-110.5 -98.7 -92.9 -103.5 -78.6 -108.1C-64.2 -112.8 -52.9 -117.3 -40.4 -124.3C-27.8 -131.2 -13.9 -140.6 0 -150L0 0Z" fill="#ff6f03"></path></g><g transform="translate(0, 0)"><path d="M450 0C446.9 47.3 443.8 94.7 428 139.1C412.2 183.4 383.6 224.9 347.1 252.2C310.5 279.4 265.9 292.6 229.8 316.3C193.8 340.1 166.3 374.4 129.5 398.5C92.6 422.5 46.3 436.3 0 450L0 0Z" fill="#ffdcc4"></path><path d="M300 0C297.9 31.6 295.9 63.1 285.3 92.7C274.8 122.3 255.8 149.9 231.4 168.1C207 186.3 177.2 195.1 153.2 210.9C129.2 226.7 110.9 249.6 86.3 265.7C61.7 281.7 30.9 290.8 0 300L0 0Z" fill="#ff9551"></path><path d="M150 0C149 15.8 147.9 31.6 142.7 46.4C137.4 61.1 127.9 75 115.7 84.1C103.5 93.1 88.6 97.5 76.6 105.4C64.6 113.4 55.4 124.8 43.2 132.8C30.9 140.8 15.4 145.4 0 150L0 0Z" fill="#ff6f03"></path></g></svg>