<?xml version="1.0" standalone="no"?><svg xmlns="http://www.w3.org/2000/svg" viewBox="0 0 1440 320"><path fill="#FF6F03" fill-opacity="1" d="M0,288L24,288C48,288,96,288,144,261.3C192,235,240,181,288,181.3C336,181,384,235,432,245.3C480,256,528,224,576,213.3C624,203,672,213,720,186.7C768,160,816,96,864,80C912,64,960,96,1008,117.3C1056,139,1104,149,1152,133.3C1200,117,1248,75,1296,90.7C1344,107,1392,181,1416,218.7L1440,256L1440,320L1416,320C1392,320,1344,320,1296,320C1248,320,1200,320,1152,320C1104,320,1056,320,1008,320C960,320,912,320,864,320C816,320,768,320,720,320C672,320,624,320,576,320C528,320,480,320,432,320C384,320,336,320,288,320C240,320,192,320,144,320C96,320,48,320,24,320L0,320Z"></path></svg>